{
	"asset":{
		"generator":"Khronos glTF Blender I/O v5.0.21",
		"version":"2.0"
	},
	"scene":0,
	"scenes":[
		{
			"name":"Scene",
			"nodes":[
				0
			]
		}
	],
	"nodes":[
		{
			"mesh":0,
			"name":"Cylinder"
		}
	],
	"materials":[
		{
			"doubleSided":true,
			"name":"Pillar",
			"pbrMetallicRoughness":{
				"baseColorFactor":[
					0.800000011920929,
					0.800000011920929,
					0.800000011920929,
					1
				],
				"metallicFactor":0,
				"roughnessFactor":0.5
			}
		}
	],
	"meshes":[
		{
			"name":"Cylinder.003",
			"primitives":[
				{
					"attributes":{
						"POSITION":0,
						"NORMAL":1,
						"TEXCOORD_0":2
					},
					"indices":3,
					"material":0
				}
			]
		}
	],
	"accessors":[
		{
			"bufferView":0,
			"componentType":5126,
			"count":33917,
			"max":[
				3.778428554534912,
				19.28824806213379,
				3.5918118953704834
			],
			"min":[
				-3.7696988582611084,
				-0.21773302555084229,
				-3.5918118953704834
			],
			"type":"VEC3"
		},
		{
			"bufferView":1,
			"componentType":5126,
			"count":33917,
			"type":"VEC3"
		},
		{
			"bufferView":2,
			"componentType":5126,
			"count":33917,
			"type":"VEC2"
		},
		{
			"bufferView":3,
			"componentType":5123,
			"count":181284,
			"type":"SCALAR"
		}
	],
	"bufferViews":[
		{
			"buffer":0,
			"byteLength":407004,
			"byteOffset":0,
			"target":34962
		},
		{
			"buffer":0,
			"byteLength":407004,
			"byteOffset":407004,
			"target":34962
		},
		{
			"buffer":0,
			"byteLength":271336,
			"byteOffset":814008,
			"target":34962
		},
		{
			"buffer":0,
			"byteLength":362568,
			"byteOffset":1085344,
			"target":34963
		}
	],
	"buffers":[
		{
			"byteLength":1447912,
			"uri":"SM_Big_Pillar2.bin"
		}
	]
}
