{
	"asset":{
		"generator":"Khronos glTF Blender I/O v5.0.21",
		"version":"2.0"
	},
	"scene":0,
	"scenes":[
		{
			"name":"Scene",
			"nodes":[
				0
			]
		}
	],
	"nodes":[
		{
			"mesh":0,
			"name":"SM_Slope_03"
		}
	],
	"meshes":[
		{
			"name":"Cube.018",
			"primitives":[
				{
					"attributes":{
						"POSITION":0,
						"NORMAL":1,
						"TEXCOORD_0":2
					},
					"indices":3
				}
			]
		}
	],
	"accessors":[
		{
			"bufferView":0,
			"componentType":5126,
			"count":69,
			"max":[
				0,
				1,
				0
			],
			"min":[
				-4,
				0,
				-4
			],
			"type":"VEC3"
		},
		{
			"bufferView":1,
			"componentType":5126,
			"count":69,
			"type":"VEC3"
		},
		{
			"bufferView":2,
			"componentType":5126,
			"count":69,
			"type":"VEC2"
		},
		{
			"bufferView":3,
			"componentType":5123,
			"count":126,
			"type":"SCALAR"
		}
	],
	"bufferViews":[
		{
			"buffer":0,
			"byteLength":828,
			"byteOffset":0,
			"target":34962
		},
		{
			"buffer":0,
			"byteLength":828,
			"byteOffset":828,
			"target":34962
		},
		{
			"buffer":0,
			"byteLength":552,
			"byteOffset":1656,
			"target":34962
		},
		{
			"buffer":0,
			"byteLength":252,
			"byteOffset":2208,
			"target":34963
		}
	],
	"buffers":[
		{
			"byteLength":2460,
			"uri":"CM_Slope_03.bin"
		}
	]
}
