{
	"asset":{
		"generator":"Khronos glTF Blender I/O v5.0.21",
		"version":"2.0"
	},
	"scene":0,
	"scenes":[
		{
			"name":"Scene",
			"nodes":[
				0
			]
		}
	],
	"nodes":[
		{
			"mesh":0,
			"name":"SM_Slope_01"
		}
	],
	"meshes":[
		{
			"name":"Cube.001",
			"primitives":[
				{
					"attributes":{
						"POSITION":0,
						"NORMAL":1,
						"TEXCOORD_0":2
					},
					"indices":3
				}
			]
		}
	],
	"accessors":[
		{
			"bufferView":0,
			"componentType":5126,
			"count":43,
			"max":[
				0,
				1,
				1.000000238418579
			],
			"min":[
				-4,
				0,
				-1.000000238418579
			],
			"type":"VEC3"
		},
		{
			"bufferView":1,
			"componentType":5126,
			"count":43,
			"type":"VEC3"
		},
		{
			"bufferView":2,
			"componentType":5126,
			"count":43,
			"type":"VEC2"
		},
		{
			"bufferView":3,
			"componentType":5123,
			"count":84,
			"type":"SCALAR"
		}
	],
	"bufferViews":[
		{
			"buffer":0,
			"byteLength":516,
			"byteOffset":0,
			"target":34962
		},
		{
			"buffer":0,
			"byteLength":516,
			"byteOffset":516,
			"target":34962
		},
		{
			"buffer":0,
			"byteLength":344,
			"byteOffset":1032,
			"target":34962
		},
		{
			"buffer":0,
			"byteLength":168,
			"byteOffset":1376,
			"target":34963
		}
	],
	"buffers":[
		{
			"byteLength":1544,
			"uri":"CM_Slope_01.bin"
		}
	]
}
