{
	"asset":{
		"generator":"Khronos glTF Blender I/O v5.0.21",
		"version":"2.0"
	},
	"scene":0,
	"scenes":[
		{
			"name":"Scene",
			"nodes":[
				0
			]
		}
	],
	"nodes":[
		{
			"mesh":0,
			"name":"SM_pillar"
		}
	],
	"materials":[
		{
			"doubleSided":true,
			"name":"Pillar",
			"pbrMetallicRoughness":{
				"baseColorFactor":[
					0.800000011920929,
					0.800000011920929,
					0.800000011920929,
					1
				],
				"metallicFactor":0,
				"roughnessFactor":0.5
			}
		}
	],
	"meshes":[
		{
			"name":"Cylinder",
			"primitives":[
				{
					"attributes":{
						"POSITION":0,
						"NORMAL":1,
						"TEXCOORD_0":2
					},
					"indices":3,
					"material":0
				}
			]
		}
	],
	"accessors":[
		{
			"bufferView":0,
			"componentType":5126,
			"count":17992,
			"max":[
				3.781606435775757,
				20.01717758178711,
				3.8770458698272705
			],
			"min":[
				-3.9163851737976074,
				-0.6051559448242188,
				-3.8349809646606445
			],
			"type":"VEC3"
		},
		{
			"bufferView":1,
			"componentType":5126,
			"count":17992,
			"type":"VEC3"
		},
		{
			"bufferView":2,
			"componentType":5126,
			"count":17992,
			"type":"VEC2"
		},
		{
			"bufferView":3,
			"componentType":5123,
			"count":89460,
			"type":"SCALAR"
		}
	],
	"bufferViews":[
		{
			"buffer":0,
			"byteLength":215904,
			"byteOffset":0,
			"target":34962
		},
		{
			"buffer":0,
			"byteLength":215904,
			"byteOffset":215904,
			"target":34962
		},
		{
			"buffer":0,
			"byteLength":143936,
			"byteOffset":431808,
			"target":34962
		},
		{
			"buffer":0,
			"byteLength":178920,
			"byteOffset":575744,
			"target":34963
		}
	],
	"buffers":[
		{
			"byteLength":754664,
			"uri":"SM_Big_Pillargltf.bin"
		}
	]
}
