{
	"asset":{
		"generator":"Khronos glTF Blender I/O v5.0.21",
		"version":"2.0"
	},
	"scene":0,
	"scenes":[
		{
			"name":"Scene",
			"nodes":[
				0
			]
		}
	],
	"nodes":[
		{
			"mesh":0,
			"name":"SM_Pipes_03"
		}
	],
	"materials":[
		{
			"doubleSided":true,
			"name":"PipeMaterial",
			"pbrMetallicRoughness":{
				"baseColorFactor":[
					0.800000011920929,
					0.800000011920929,
					0.800000011920929,
					1
				],
				"metallicFactor":0,
				"roughnessFactor":0.5
			}
		}
	],
	"meshes":[
		{
			"name":"SM_Wall_01.002",
			"primitives":[
				{
					"attributes":{
						"POSITION":0,
						"NORMAL":1,
						"TEXCOORD_0":2
					},
					"indices":3,
					"material":0
				}
			]
		}
	],
	"accessors":[
		{
			"bufferView":0,
			"componentType":5126,
			"count":90,
			"max":[
				2.384185791015625e-07,
				3.8334450721740723,
				0.3566914200782776
			],
			"min":[
				-3.8309435844421387,
				-5.516745318345784e-07,
				-0.7122552990913391
			],
			"type":"VEC3"
		},
		{
			"bufferView":1,
			"componentType":5126,
			"count":90,
			"type":"VEC3"
		},
		{
			"bufferView":2,
			"componentType":5126,
			"count":90,
			"type":"VEC2"
		},
		{
			"bufferView":3,
			"componentType":5123,
			"count":384,
			"type":"SCALAR"
		}
	],
	"bufferViews":[
		{
			"buffer":0,
			"byteLength":1080,
			"byteOffset":0,
			"target":34962
		},
		{
			"buffer":0,
			"byteLength":1080,
			"byteOffset":1080,
			"target":34962
		},
		{
			"buffer":0,
			"byteLength":720,
			"byteOffset":2160,
			"target":34962
		},
		{
			"buffer":0,
			"byteLength":768,
			"byteOffset":2880,
			"target":34963
		}
	],
	"buffers":[
		{
			"byteLength":3648,
			"uri":"SM_Pipes_03.bin"
		}
	]
}
